# xmcd CD database file
#
# Track frame offsets:
#	150
#	18140
#	33863
#	60748
#	81310
#
# Disc length: 1337 seconds
#
# Revision: 0
# Processed by: cddbd v1.5.1PL2 Copyright (c) Steve Scherf et al.
# Submitted via: CDex 1.51
#
DISCID=31053705
DTITLE=扇愛奈 - 扇愛奈入ります
DYEAR=2005
DGENRE=Rock
TTITLE0=スタンプラリー
TTITLE1=ひねくれて藤沢
TTITLE2=十月
TTITLE3=共有
TTITLE4=お風呂
EXTD=YEAR: 2005
EXTT0=
EXTT1=
EXTT2=
EXTT3=
EXTT4=
PLAYORDER=
